HIERARCHY
ROOT Hips
{
	OFFSET 0.000000 8.830580 0.000000
	CHANNELS 6 Xposition Yposition Zposition Zrotation Yrotation Xrotation 
	JOINT Spine
	{
		OFFSET 0.000000 0.010000 0.000000
		CHANNELS 3 Zrotation Yrotation Xrotation
		JOINT Spine1
		{
			OFFSET 0.000000 2.459130 0.000000
			CHANNELS 3 Zrotation Yrotation Xrotation
			JOINT Neck
			{
				OFFSET 0.000000 2.484630 0.000000
				CHANNELS 3 Zrotation Yrotation Xrotation
				JOINT Head_virtual
				{
					OFFSET 0.000000 0.000000 0.000000
					CHANNELS 3 Zrotation Yrotation Xrotation
					JOINT Head
					{
						OFFSET 0.000000 0.927525 0.000000
						CHANNELS 3 Zrotation Yrotation Xrotation
						End Site
						{
							OFFSET 0.000000 0.000000 0.000000
						}
					}
				}
				JOINT LeftUpArm_virtual
				{
					OFFSET 0.000000 0.000000 0.000000
					CHANNELS 3 Zrotation Yrotation Xrotation
					JOINT LeftUpArm
					{
						OFFSET 1.248820 0.000000 0.000000
						CHANNELS 3 Zrotation Yrotation Xrotation
						JOINT LeftForeArm
						{
							OFFSET 2.597580 0.000000 0.000000
							CHANNELS 3 Zrotation Yrotation Xrotation
							JOINT LeftHand
							{
								OFFSET 2.455420 0.000000 0.000000
								CHANNELS 3 Zrotation Yrotation Xrotation
								End Site
								{
									OFFSET 0.000000 0.000000 0.000000
								}
							}
						}
					}
				}
				JOINT RightUpArm_virtual
				{
					OFFSET -0.000000 -0.000000 -0.000000
					CHANNELS 3 Zrotation Yrotation Xrotation
					JOINT RightUpArm
					{
						OFFSET -1.248820 -0.000000 -0.000000
						CHANNELS 3 Zrotation Yrotation Xrotation
						JOINT RightForeArm
						{
							OFFSET -2.597580 -0.000000 -0.000000
							CHANNELS 3 Zrotation Yrotation Xrotation
							JOINT RightHand
							{
								OFFSET -2.455420 -0.000000 -0.000000
								CHANNELS 3 Zrotation Yrotation Xrotation
								End Site
								{
									OFFSET 0.000000 0.000000 0.000000
								}
							}
						}
					}
				}
			}
		}
	}
	JOINT LeftUpLeg
	{
		OFFSET 1.271939 0.000000 0.000000
		CHANNELS 3 Zrotation Yrotation Xrotation
		JOINT LeftLowLeg
		{
			OFFSET 0.000000 -4.342910 0.000000
			CHANNELS 3 Zrotation Yrotation Xrotation
			JOINT LeftFoot
			{
				OFFSET 0.000000 -4.487670 0.000000
				CHANNELS 3 Zrotation Yrotation Xrotation
				JOINT LeftToeBase
				{
					OFFSET 0.000000 0.000000 1.515070
					CHANNELS 3 Zrotation Yrotation Xrotation
					End Site
					{
						OFFSET 0.000000 0.000000 0.000000
					}
				}
			}
		}
	}
	JOINT RightUpLeg
	{
		OFFSET -1.271939 0.000000 0.000000
		CHANNELS 3 Zrotation Yrotation Xrotation
		JOINT RightLowLeg
		{
			OFFSET 0.000000 -4.342910 0.000000
			CHANNELS 3 Zrotation Yrotation Xrotation
			JOINT RightFoot
			{
				OFFSET 0.000000 -4.487670 0.000000
				CHANNELS 3 Zrotation Yrotation Xrotation
				JOINT RightToeBase
				{
					OFFSET 0.000000 0.000000 1.515070
					CHANNELS 3 Zrotation Yrotation Xrotation
					End Site
					{
						OFFSET 0.000000 0.000000 0.000000
					}
				}
			}
		}
	}
}
MOTION
Frames: 13
Frame Time: 0.041667
-20.555806 9.252907 50.302996 -172.536066 8.080866 173.106942 2.524794 -4.557113 -19.418340 12.971019 0.923479 30.471778 0.000000 0.000000 0.000000 -10.219488 -4.849437 -5.157768 6.412621 4.630459 -73.660422 -35.020302 -1.082930 -8.964060 -33.905201 3.578670 -144.945999 0.000000 35.286499 0.000000 5.142250 -5.605290 179.451996 21.770800 -0.223805 -3.253710 39.403801 1.061110 23.678499 0.000000 20.472000 0.000000 3.093560 -1.805670 -1.735780 13.806293 15.899909 14.413467 0.000000 0.000000 4.262600 -8.719890 8.574457 4.894537 0.000000 0.000000 -9.223970 8.680304 7.022198 9.198239 0.000000 0.000000 8.432710 11.516928 -20.503375 11.052637 0.000000 0.000000 -11.966440 
-20.552025 9.251769 50.299536 -172.498983 8.531752 173.274571 2.632062 -4.560926 -19.359137 13.097888 0.953076 30.250623 0.000000 0.000000 0.000000 -10.105120 -4.907112 -4.793451 6.261323 4.723779 -73.499355 -35.132500 -1.136400 -9.197940 -34.023102 3.818150 -144.776993 0.000000 34.308800 0.000000 5.237900 -5.554640 179.466003 21.764500 -0.326638 -3.238170 39.523102 0.897791 23.480700 0.000000 20.226700 0.000000 2.787200 -1.951270 -2.038530 13.939323 16.221407 14.684960 0.000000 0.000000 3.807770 -8.875202 8.476381 5.039893 0.000000 0.000000 -9.222500 8.707544 7.099567 8.911314 0.000000 0.000000 8.709860 11.305921 -20.261669 11.062588 0.000000 0.000000 -12.366800 
-20.545614 9.250280 50.298013 -172.471469 9.011970 173.462147 2.717089 -4.616956 -19.285943 13.273910 0.989670 29.968328 0.000000 0.000000 0.000000 -10.140284 -4.920603 -4.252804 6.175311 4.797717 -73.262105 -35.358101 -1.119570 -9.251360 -33.960201 3.768300 -144.024002 0.000000 33.158298 0.000000 5.210580 -5.636250 178.578003 21.688101 -0.384986 -3.270070 39.719601 0.666409 23.401501 0.000000 20.106300 0.000000 2.077560 -2.198130 -1.625200 14.073156 16.496795 14.983633 0.000000 0.000000 3.279460 -9.115891 8.342365 5.193694 0.000000 0.000000 -9.206680 8.776582 7.351497 8.565673 0.000000 0.000000 9.058780 11.109108 -20.159005 11.020929 0.000000 0.000000 -12.999400 
-20.535579 9.248485 50.297640 -172.400894 9.567592 173.738923 2.725731 -4.792816 -19.193828 13.807073 1.130335 29.585531 0.000000 0.000000 0.000000 -10.427802 -4.900559 -3.717100 6.165934 4.733886 -72.977384 -35.851002 -1.090650 -9.132930 -33.710999 3.550590 -142.766006 0.000000 31.948200 0.000000 4.734590 -6.011950 177.852997 21.455601 -0.532949 -3.199480 39.926899 0.493492 23.235100 0.000000 20.232901 0.000000 1.417330 -2.800900 -1.250340 14.179010 16.632398 15.213836 0.000000 0.000000 2.711270 -9.402038 8.490194 5.324708 0.000000 0.000000 -9.112060 8.935517 7.835590 8.116323 0.000000 0.000000 9.443280 10.989970 -20.188236 10.955907 0.000000 0.000000 -13.698610 
-20.522536 9.246565 50.298312 -172.379172 10.031576 173.975694 2.684663 -5.030378 -19.070173 14.262887 1.227604 29.206652 0.000000 0.000000 0.000000 -10.605991 -4.957256 -2.962742 6.147490 4.715787 -72.702639 -36.294102 -0.988317 -8.939190 -33.416100 3.135780 -140.878998 0.000000 30.609900 0.000000 4.047650 -6.133300 176.233994 21.253500 -0.602071 -3.130780 40.131199 0.284450 23.161699 0.000000 20.352900 0.000000 0.553694 -2.896400 -0.326637 14.298527 16.908021 15.463234 0.000000 0.000000 2.119560 -9.639415 8.510018 5.541035 0.000000 0.000000 -9.140360 8.958852 7.791462 7.599810 0.000000 0.000000 9.999950 10.780321 -19.816980 10.890183 0.000000 0.000000 -14.228964 
-20.503521 9.244937 50.297980 -172.355941 10.346409 174.177550 2.572473 -5.402252 -18.940912 14.743894 1.275374 28.811907 0.000000 0.000000 0.000000 -10.770643 -5.059422 -2.197814 6.149230 4.649112 -72.360938 -36.751202 -0.857130 -8.601260 -32.974499 2.561700 -138.184998 0.000000 29.424200 0.000000 2.967080 -6.649060 174.197998 21.024599 -0.654866 -2.952390 40.441002 0.140656 22.729000 0.000000 20.483999 0.000000 -0.249894 -3.165410 -0.922028 14.408465 16.978026 15.658169 0.000000 0.000000 1.601570 -9.854196 8.577657 5.750444 0.000000 0.000000 -9.041400 9.075273 7.937766 7.232623 0.000000 0.000000 10.378800 10.634528 -19.745507 10.802385 0.000000 0.000000 -14.517248 
-20.479328 9.243305 50.294727 -172.345197 10.466160 174.338388 2.455622 -5.844827 -18.817269 15.009177 1.158718 28.534870 0.000000 0.000000 0.000000 -11.059229 -4.985159 -1.577072 6.232575 4.638700 -72.089463 -37.111401 -0.515609 -8.314990 -32.376598 1.691060 -134.296997 0.000000 28.387699 0.000000 1.528880 -7.115530 171.246994 20.874399 -0.754688 -2.907900 40.808701 0.082800 22.263500 0.000000 20.646500 0.000000 -0.689809 -3.284160 -0.858299 14.530399 16.941789 15.799922 0.000000 0.000000 1.162280 -10.096761 8.593398 5.956913 0.000000 0.000000 -9.049980 9.206645 8.007676 6.982164 0.000000 0.000000 10.651400 10.545172 -19.681731 10.700128 0.000000 0.000000 -15.030508 
-20.450472 9.241566 50.294844 -172.330380 10.649683 174.510732 2.364249 -6.233330 -18.666495 15.215213 1.066636 28.205825 0.000000 0.000000 0.000000 -11.370085 -4.915765 -0.778091 6.266941 4.681263 -71.971384 -37.476002 0.025041 -7.887080 -31.594801 0.246605 -128.488007 0.000000 27.327900 0.000000 -0.569889 -7.350800 166.766998 20.746700 -0.750780 -2.751420 41.206200 -0.010840 21.715300 0.000000 20.915899 0.000000 -1.054660 -3.761470 -1.013080 14.734364 17.127891 15.882534 0.000000 0.000000 0.858165 -10.328849 8.476280 6.151478 0.000000 0.000000 -9.062630 9.407842 8.340604 6.698761 0.000000 0.000000 10.955800 10.531664 -19.792805 10.543544 0.000000 0.000000 -15.132662 
-20.418318 9.237229 50.287473 -172.297975 10.763542 174.525375 2.950595 -5.411982 -19.056100 13.045664 0.515226 29.133892 0.000000 0.000000 0.000000 -9.388444 -5.417224 -1.741671 5.261379 6.019851 -71.503623 -34.629700 -2.746180 -10.916000 -35.345901 6.258540 40.408199 0.000000 -25.666700 0.000000 1.953130 7.257200 0.331094 21.858200 -0.669439 -3.620650 41.606499 -0.168014 21.691099 0.000000 21.308001 0.000000 -1.316420 -3.904400 -1.584560 15.025427 17.270880 16.145275 0.000000 0.000000 0.567778 -10.579568 8.311564 6.255694 0.000000 0.000000 -8.997510 9.647192 8.557704 6.704633 0.000000 0.000000 11.098100 10.613029 -19.840998 10.326497 0.000000 0.000000 -15.137217 
-20.381726 9.238084 50.290247 -172.300304 10.791603 174.707215 2.749495 -5.869526 -18.873959 13.373004 0.344401 29.216079 0.000000 0.000000 0.000000 -9.939574 -5.205973 -1.751435 5.491340 5.833362 -71.574233 -35.158901 -1.918200 -8.460840 -34.916500 3.672580 40.452000 0.000000 -25.232800 0.000000 1.198720 8.226710 -1.883350 21.773100 -1.067610 -3.483280 41.833900 0.278831 21.658400 0.000000 21.847000 0.000000 -1.896920 -4.031310 -1.724600 15.240318 17.464738 16.001844 0.000000 0.000000 0.559231 -10.727081 8.134180 6.459074 0.000000 0.000000 -9.051680 9.869338 8.846463 6.451993 0.000000 0.000000 11.289700 10.619514 -20.019343 10.248947 0.000000 0.000000 -15.040961 
-20.340509 9.236701 50.291261 -172.290066 10.829885 174.793201 2.750465 -5.916495 -18.827230 13.003417 0.120600 29.422772 0.000000 0.000000 0.000000 -9.595872 -5.244962 -1.676119 5.315777 6.077623 -71.586822 -34.827400 -1.804920 -8.202740 -34.860100 3.436850 40.192902 0.000000 -25.179199 0.000000 1.157740 8.345280 -1.908410 21.908701 -1.102040 -3.631610 42.276402 0.148389 21.351000 0.000000 22.517700 0.000000 -2.530540 -4.376020 -1.910510 15.529516 17.662083 15.981106 0.000000 0.000000 0.542637 -10.904251 7.956868 6.610289 0.000000 0.000000 -9.076030 10.138137 9.102975 6.360916 0.000000 0.000000 11.395200 10.651764 -20.165170 10.121112 0.000000 0.000000 -14.797393 
-20.296514 9.234867 50.301712 -172.286489 10.584940 174.825096 2.621299 -6.156119 -18.547521 12.766929 -0.080821 29.416332 0.000000 0.000000 0.000000 -9.183050 -5.377552 -1.346085 5.092053 6.374312 -71.831058 -34.701801 -1.814410 -7.742920 -34.490002 3.188130 39.784401 0.000000 -25.340799 0.000000 1.017670 8.274600 -1.883380 22.080000 -1.063020 -3.693590 42.569599 -0.028314 21.528000 0.000000 22.964800 0.000000 -3.897850 -3.750040 -2.799960 15.792362 17.655403 15.711693 0.000000 0.000000 0.787219 -11.254090 7.589744 6.676817 0.000000 0.000000 -9.107050 10.378386 8.991223 6.283576 0.000000 0.000000 11.457300 10.638273 -20.230730 10.017415 0.000000 0.000000 -14.509724 
-20.248278 9.233076 50.303926 -172.253887 10.682546 174.959579 2.642025 -6.066394 -18.442161 12.466484 -0.166751 29.571137 0.000000 0.000000 0.000000 -8.800722 -5.429929 -1.281664 5.086074 6.616053 -71.919723 -34.291401 -1.737140 -7.916100 -34.415798 3.241720 39.713299 0.000000 -25.574900 0.000000 1.119210 8.135160 -1.671900 22.235901 -1.173280 -3.841920 42.894402 -0.194386 21.696199 0.000000 23.606100 0.000000 -5.470870 -3.671450 -3.077610 16.149511 17.952080 15.638283 0.000000 0.000000 0.838411 -11.493963 7.380268 6.796115 0.000000 0.000000 -9.131560 10.694966 9.320449 6.220298 0.000000 0.000000 11.432100 10.684908 -20.322772 9.927345 0.000000 0.000000 -14.051625 
